{
  "accessors": [
    {
      "bufferView": 2,
      "componentType": 5126,
      "count": 368,
      "max": [
        27.269638061523438,
        -12.263832092285156,
        1.326235055923462
      ],
      "min": [
        26.241588592529297,
        -15.147674560546875,
        1.0407259464263916
      ],
      "type": "VEC3"
    },
    {
      "bufferView": 1,
      "componentType": 5126,
      "count": 368,
      "max": [
        0.0,
        0.0
      ],
      "min": [
        0.0,
        0.0
      ],
      "type": "VEC2"
    },
    {
      "bufferView": 0,
      "componentType": 5125,
      "count": 368,
      "type": "SCALAR"
    },
    {
      "bufferView": 2,
      "byteOffset": 4416,
      "componentType": 5126,
      "count": 20268,
      "max": [
        27.273860931396484,
        -12.263832092285156,
        1.3266819715499878
      ],
      "min": [
        26.232179641723633,
        -15.148275375366211,
        1.0144439935684204
      ],
      "type": "VEC3"
    },
    {
      "bufferView": 2,
      "byteOffset": 247632,
      "componentType": 5126,
      "count": 20268,
      "max": [
        0.9860158562660217,
        0.997654914855957,
        0.9633034467697144
      ],
      "min": [
        -0.9947828650474548,
        -0.9973034858703613,
        -0.9749614596366882
      ],
      "type": "VEC3"
    },
    {
      "bufferView": 1,
      "byteOffset": 2944,
      "componentType": 5126,
      "count": 20268,
      "max": [
        0.999118983745575,
        0.9969480037689209
      ],
      "min": [
        0.000881000014487654,
        0.000881000014487654
      ],
      "type": "VEC2"
    },
    {
      "bufferView": 0,
      "byteOffset": 1472,
      "componentType": 5125,
      "count": 20388,
      "type": "SCALAR"
    },
    {
      "bufferView": 2,
      "byteOffset": 490848,
      "componentType": 5126,
      "count": 552,
      "max": [
        27.308168411254883,
        -12.219175338745117,
        1.3724030256271362
      ],
      "min": [
        26.308055877685547,
        -15.152830123901367,
        1.138550043106079
      ],
      "type": "VEC3"
    },
    {
      "bufferView": 2,
      "byteOffset": 497472,
      "componentType": 5126,
      "count": 552,
      "max": [
        0.6931108236312866,
        0.998319149017334,
        0.9977442026138306
      ],
      "min": [
        -0.998022735118866,
        -0.9974632263183594,
        -0.964658796787262
      ],
      "type": "VEC3"
    },
    {
      "bufferView": 1,
      "byteOffset": 165088,
      "componentType": 5126,
      "count": 552,
      "max": [
        0.919605016708374,
        0.962007999420166
      ],
      "min": [
        0.000881000014487654,
        0.000881000014487654
      ],
      "type": "VEC2"
    },
    {
      "bufferView": 0,
      "byteOffset": 83024,
      "componentType": 5125,
      "count": 1944,
      "type": "SCALAR"
    }
  ],
  "asset": {
    "extras": {
      "author": "jakerc10 (https://sketchfab.com/jakerc10)",
      "license": "CC-BY-4.0 (http://creativecommons.org/licenses/by/4.0/)",
      "source": "https://sketchfab.com/3d-models/garland-2c825e3175df4806bfe12db4d9d3089c",
      "title": "Garland"
    },
    "generator": "Sketchfab-14.86.0",
    "version": "2.0"
  },
  "bufferViews": [
    {
      "buffer": 0,
      "byteLength": 90800,
      "name": "floatBufferViews",
      "target": 34963
    },
    {
      "buffer": 0,
      "byteLength": 169504,
      "byteOffset": 90800,
      "byteStride": 8,
      "name": "floatBufferViews",
      "target": 34962
    },
    {
      "buffer": 0,
      "byteLength": 504096,
      "byteOffset": 260304,
      "byteStride": 12,
      "name": "floatBufferViews",
      "target": 34962
    }
  ],
  "buffers": [
    {
      "byteLength": 764400,
      "uri": "scene.bin"
    }
  ],
  "images": [
    {
      "uri": "textures/None_baseColor.png"
    }
  ],
  "materials": [
    {
      "doubleSided": true,
      "name": "None",
      "pbrMetallicRoughness": {
        "baseColorTexture": {
          "index": 0
        },
        "metallicFactor": 0.0,
        "roughnessFactor": 0.6
      }
    }
  ],
  "meshes": [
    {
      "name": "Object_0",
      "primitives": [
        {
          "attributes": {
            "POSITION": 0,
            "TEXCOORD_0": 1
          },
          "indices": 2,
          "material": 0,
          "mode": 1
        }
      ]
    },
    {
      "name": "Object_1",
      "primitives": [
        {
          "attributes": {
            "NORMAL": 4,
            "POSITION": 3,
            "TEXCOORD_0": 5
          },
          "indices": 6,
          "material": 0,
          "mode": 4
        }
      ]
    },
    {
      "name": "Object_2",
      "primitives": [
        {
          "attributes": {
            "NORMAL": 8,
            "POSITION": 7,
            "TEXCOORD_0": 9
          },
          "indices": 10,
          "material": 0,
          "mode": 4
        }
      ]
    }
  ],
  "nodes": [
    {
      "children": [
        1
      ],
      "matrix": [
        1.0,
        0.0,
        0.0,
        0.0,
        0.0,
        2.220446049250313e-16,
        -1.0,
        0.0,
        0.0,
        1.0,
        2.220446049250313e-16,
        0.0,
        0.0,
        0.0,
        0.0,
        1.0
      ],
      "name": "Sketchfab_model"
    },
    {
      "children": [
        2,
        3,
        4
      ],
      "name": "Garland.obj.cleaner.materialmerger.gles"
    },
    {
      "mesh": 0,
      "name": "Object_2"
    },
    {
      "mesh": 1,
      "name": "Object_3"
    },
    {
      "mesh": 2,
      "name": "Object_4"
    }
  ],
  "samplers": [
    {
      "magFilter": 9729,
      "minFilter": 9987,
      "wrapS": 10497,
      "wrapT": 10497
    }
  ],
  "scene": 0,
  "scenes": [
    {
      "name": "Sketchfab_Scene",
      "nodes": [
        0
      ]
    }
  ],
  "textures": [
    {
      "sampler": 0,
      "source": 0
    }
  ]
}
